<svg xmlns="http://www.w3.org/2000/svg" xmlns:xlink="http://www.w3.org/1999/xlink" viewBox="0 0 500 500"><defs><style>.cls-1{fill:url(#linear-gradient);}.cls-2{fill:url(#linear-gradient-2);}.cls-3{fill:url(#linear-gradient-3);}.cls-4{fill:url(#linear-gradient-4);}</style><linearGradient id="linear-gradient" x1="291.31" y1="466.98" x2="408.02" y2="106.54" gradientUnits="userSpaceOnUse"><stop offset="0" stop-color="#2e368f"/><stop offset="0.09" stop-color="#2d4497"/><stop offset="0.1" stop-color="#2d4699"/><stop offset="0.62" stop-color="#29aae2"/><stop offset="0.67" stop-color="#3eaace"/><stop offset="0.78" stop-color="#75ab99"/><stop offset="0.93" stop-color="#cdad45"/><stop offset="1" stop-color="#faae1a"/></linearGradient><linearGradient id="linear-gradient-2" x1="173.39" y1="428.8" x2="290.09" y2="68.35" xlink:href="#linear-gradient"/><linearGradient id="linear-gradient-3" x1="236.7" y1="449.3" x2="353.41" y2="88.85" xlink:href="#linear-gradient"/><linearGradient id="linear-gradient-4" x1="124.98" y1="413.12" x2="241.68" y2="52.68" xlink:href="#linear-gradient"/></defs><title>Artboard 1 copy 2</title><g id="Layer_1" data-name="Layer 1"><polygon class="cls-1" points="374.81 355.11 334.99 375.57 272.99 407.42 237.7 486.57 374.81 355.11"/><polygon class="cls-2" points="222.88 333.48 105.86 385.83 220.03 500 243.87 446.53 262.92 403.83 222.88 333.48"/><polygon class="cls-3" points="230.58 325.44 240.67 343.17 270.99 396.46 321.14 370.69 398.05 331.18 259 0.24 247.83 128.06 230.58 325.44"/><polygon class="cls-4" points="247.95 4.13 101.95 280.61 101.95 375.9 220.09 323.04 233.25 172.32 247.95 4.13"/></g></svg>