<?xml version="1.0" encoding="utf-8"?>
<!-- Generator: Adobe Illustrator 22.0.1, SVG Export Plug-In . SVG Version: 6.00 Build 0)  -->
<!DOCTYPE svg PUBLIC "-//W3C//DTD SVG 1.1//EN" "http://www.w3.org/Graphics/SVG/1.1/DTD/svg11.dtd">
<svg version="1.1" xmlns="http://www.w3.org/2000/svg" xmlns:xlink="http://www.w3.org/1999/xlink" x="0px" y="0px"
	 viewBox="0 0 1200 800" style="enable-background:new 0 0 1200 800;" xml:space="preserve">
<style type="text/css">
	.st0{fill:url(#SVGID_1_);}
	.st1{fill:none;}
	.st2{fill:url(#SVGID_2_);}
	.st3{fill:url(#SVGID_3_);}
	.st4{fill:url(#SVGID_4_);}
	.st5{fill:url(#SVGID_5_);}
	.st6{fill:url(#SVGID_6_);}
	.st7{fill:url(#SVGID_7_);}
	.st8{fill:url(#SVGID_8_);}
	.st9{fill:url(#SVGID_9_);}
	.st10{fill:url(#SVGID_10_);}
	.st11{fill:url(#SVGID_11_);}
	.st12{fill:url(#SVGID_12_);}
	.st13{fill:url(#SVGID_13_);}
	.st14{fill:url(#SVGID_14_);}
	.st15{fill:url(#SVGID_15_);}
	.st16{fill:url(#SVGID_16_);}
	.st17{fill:url(#SVGID_17_);}
	.st18{fill:url(#SVGID_18_);}
	.st19{fill:url(#SVGID_19_);}
	.st20{fill:url(#SVGID_20_);}
	.st21{fill:url(#SVGID_21_);}
	.st22{fill:url(#SVGID_22_);}
	.st23{fill:url(#SVGID_23_);}
	.st24{fill:url(#SVGID_24_);}
	.st25{fill:url(#SVGID_25_);}
	.st26{fill:url(#SVGID_26_);}
	.st27{fill:url(#SVGID_27_);}
	.st28{fill:url(#SVGID_28_);}
	.st29{fill:url(#SVGID_29_);}
	.st30{fill:url(#SVGID_30_);}
	.st31{fill:url(#SVGID_31_);}
	.st32{fill:url(#SVGID_32_);}
	.st33{clip-path:url(#SVGID_34_);}
	.st34{fill:#6F519C;}
	.st35{fill:#58368E;}
	.st36{fill:#4D337C;}
	.st37{fill:#623A90;}
	.st38{fill:#422C6A;}
	.st39{fill:#56318B;}
	.st40{fill:#DEB6D2;}
	.st41{clip-path:url(#SVGID_36_);}
	.st42{fill:#E1E57E;}
	.st43{fill:#75AB50;}
	.st44{fill:#579368;}
	.st45{fill:#9DC44D;}
	.st46{fill:#88BD6D;}
	.st47{fill:#C7D872;}
	.st48{fill:#87BE7A;}
	.st49{fill:#F2F3C4;}
	.st50{clip-path:url(#SVGID_38_);}
	.st51{fill:#B6DADF;}
	.st52{fill:#74A8DB;}
	.st53{fill:#73A0D5;}
	.st54{fill:#92CEF1;}
	.st55{fill:#A3D5F5;}
	.st56{fill:#5787C5;}
	.st57{fill:#9ECECC;}
	.st58{fill:#93CAC9;}
	.st59{fill:#D7EBF3;}
	.st60{fill:#FFFFF9;}
	.st61{clip-path:url(#SVGID_40_);}
	.st62{fill:#CC3363;}
	.st63{fill:#9E244A;}
	.st64{fill:#761D3A;}
	.st65{fill:#FDF9E0;}
	.st66{fill:#272D33;}
	.st67{fill:#FFFFFF;}
	.st68{font-family:'MyriadPro-Regular';}
	.st69{font-size:82.3599px;}
	.st70{font-size:16px;}
	.st71{fill:url(#SVGID_41_);}
	.st72{fill:url(#SVGID_42_);}
	.st73{fill:url(#SVGID_43_);}
	.st74{fill:url(#SVGID_44_);}
	.st75{fill:url(#SVGID_45_);}
	.st76{fill:url(#SVGID_46_);}
	.st77{fill:url(#SVGID_47_);}
	.st78{fill:url(#SVGID_48_);}
	.st79{fill:url(#SVGID_49_);}
	.st80{fill:url(#SVGID_50_);}
	.st81{fill:url(#SVGID_51_);}
	.st82{fill:url(#SVGID_52_);}
	.st83{fill:url(#SVGID_53_);}
	.st84{fill:url(#SVGID_54_);}
	.st85{fill:url(#SVGID_55_);}
	.st86{fill:url(#SVGID_56_);}
	.st87{fill:url(#SVGID_57_);}
	.st88{fill:url(#SVGID_58_);}
	.st89{fill:url(#SVGID_59_);}
	.st90{fill:url(#SVGID_60_);}
	.st91{fill:url(#SVGID_61_);}
	.st92{fill:url(#SVGID_62_);}
	.st93{fill:url(#SVGID_63_);}
	.st94{fill:#FCFCFC;}
	.st95{font-size:24px;}
</style>
<g id="BACKGROUND">
	<linearGradient id="SVGID_1_" gradientUnits="userSpaceOnUse" x1="24.0708" y1="-64.9131" x2="1134.6676" y2="832.5692">
		<stop  offset="0" style="stop-color:#272D33"/>
		<stop  offset="0.2984" style="stop-color:#21262A"/>
		<stop  offset="0.5" style="stop-color:#1A1E21"/>
		<stop  offset="0.6207" style="stop-color:#171B1D"/>
		<stop  offset="1" style="stop-color:#111314"/>
	</linearGradient>
	<rect x="0" y="0" class="st0" width="1200" height="801"/>
	<rect x="0.2" y="0.7" class="st1" width="1199.8" height="800.3"/>
	
		<linearGradient id="SVGID_2_" gradientUnits="userSpaceOnUse" x1="1238.6224" y1="431.1843" x2="1246.0896" y2="431.1843" gradientTransform="matrix(-1 0 0 -1 2813.5115 814.0863)">
		<stop  offset="0" style="stop-color:#272D33"/>
		<stop  offset="0.2984" style="stop-color:#21262A"/>
		<stop  offset="0.5" style="stop-color:#1A1E21"/>
		<stop  offset="0.6207" style="stop-color:#171B1D"/>
		<stop  offset="1" style="stop-color:#111314"/>
	</linearGradient>
	<polygon class="st2" points="1574.9,385.5 1568.1,377.7 1567.4,388.1 	"/>
	
		<linearGradient id="SVGID_3_" gradientUnits="userSpaceOnUse" x1="1175.1031" y1="352.0092" x2="1200.7032" y2="352.0092" gradientTransform="matrix(-1 0 0 -1 2813.5115 814.0863)">
		<stop  offset="0" style="stop-color:#272D33"/>
		<stop  offset="0.2984" style="stop-color:#21262A"/>
		<stop  offset="0.5" style="stop-color:#1A1E21"/>
		<stop  offset="0.6207" style="stop-color:#171B1D"/>
		<stop  offset="1" style="stop-color:#111314"/>
	</linearGradient>
	<polygon class="st3" points="1612.8,472.3 1638.4,471.2 1638.4,454.2 1624.9,451.8 	"/>
	
		<linearGradient id="SVGID_4_" gradientUnits="userSpaceOnUse" x1="1135.3207" y1="504.7554" x2="1170.9301" y2="504.7554" gradientTransform="matrix(-1 0 0 -1 2813.5115 814.0863)">
		<stop  offset="0" style="stop-color:#272D33"/>
		<stop  offset="0.2984" style="stop-color:#21262A"/>
		<stop  offset="0.5" style="stop-color:#1A1E21"/>
		<stop  offset="0.6207" style="stop-color:#171B1D"/>
		<stop  offset="1" style="stop-color:#111314"/>
	</linearGradient>
	<polygon class="st4" points="1670.1,325.1 1678.2,304.8 1642.6,293.6 	"/>
	
		<linearGradient id="SVGID_5_" gradientUnits="userSpaceOnUse" x1="1122.222" y1="542.9352" x2="1136.8572" y2="542.9352" gradientTransform="matrix(-1 0 0 -1 2813.5115 814.0863)">
		<stop  offset="0" style="stop-color:#272D33"/>
		<stop  offset="0.2984" style="stop-color:#21262A"/>
		<stop  offset="0.5" style="stop-color:#1A1E21"/>
		<stop  offset="0.6207" style="stop-color:#171B1D"/>
		<stop  offset="1" style="stop-color:#111314"/>
	</linearGradient>
	<path class="st5" d="M1678,266.9c-2.4,3.3-1.6,7.9,1.6,10.2c3.3,2.4,7.8,1.6,10.2-1.6c2.4-3.3,1.6-7.8-1.6-10.2
		C1685,262.9,1680.4,263.6,1678,266.9z"/>
	
		<linearGradient id="SVGID_6_" gradientUnits="userSpaceOnUse" x1="1135.2557" y1="643.3615" x2="1168.4882" y2="643.3615" gradientTransform="matrix(-1 0 0 -1 2813.5115 814.0863)">
		<stop  offset="0" style="stop-color:#272D33"/>
		<stop  offset="0.2984" style="stop-color:#21262A"/>
		<stop  offset="0.5" style="stop-color:#1A1E21"/>
		<stop  offset="0.6207" style="stop-color:#171B1D"/>
		<stop  offset="1" style="stop-color:#111314"/>
	</linearGradient>
	<polygon class="st6" points="1678.3,182.2 1655.4,155.1 1645,186.3 	"/>
	
		<linearGradient id="SVGID_7_" gradientUnits="userSpaceOnUse" x1="849.3902" y1="483.0328" x2="880.9302" y2="483.0328" gradientTransform="matrix(-1 0 0 -1 2813.5115 814.0863)">
		<stop  offset="0" style="stop-color:#272D33"/>
		<stop  offset="0.2984" style="stop-color:#21262A"/>
		<stop  offset="0.5" style="stop-color:#1A1E21"/>
		<stop  offset="0.6207" style="stop-color:#171B1D"/>
		<stop  offset="1" style="stop-color:#111314"/>
	</linearGradient>
	<polygon class="st7" points="1955.8,342.3 1964.1,319.8 1932.6,328 	"/>
	
		<linearGradient id="SVGID_8_" gradientUnits="userSpaceOnUse" x1="946.1789" y1="186.2437" x2="990.929" y2="186.2437" gradientTransform="matrix(-1 0 0 -1 2813.5115 814.0863)">
		<stop  offset="0" style="stop-color:#272D33"/>
		<stop  offset="0.2984" style="stop-color:#21262A"/>
		<stop  offset="0.5" style="stop-color:#1A1E21"/>
		<stop  offset="0.6207" style="stop-color:#171B1D"/>
		<stop  offset="1" style="stop-color:#111314"/>
	</linearGradient>
	<polygon class="st8" points="1837.1,646.9 1867.3,627.7 1822.6,608.8 	"/>
	
		<linearGradient id="SVGID_9_" gradientUnits="userSpaceOnUse" x1="914.1903" y1="761.4995" x2="945.8776" y2="761.4995" gradientTransform="matrix(-1 0 0 -1 2813.5115 814.0863)">
		<stop  offset="0" style="stop-color:#272D33"/>
		<stop  offset="0.2984" style="stop-color:#21262A"/>
		<stop  offset="0.5" style="stop-color:#1A1E21"/>
		<stop  offset="0.6207" style="stop-color:#171B1D"/>
		<stop  offset="1" style="stop-color:#111314"/>
	</linearGradient>
	<polygon class="st9" points="1899.3,49.7 1867.6,44.6 1872.8,60.6 	"/>
	
		<linearGradient id="SVGID_10_" gradientUnits="userSpaceOnUse" x1="853.1785" y1="398.4796" x2="900.546" y2="398.4796" gradientTransform="matrix(-1 0 0 -1 2813.5115 814.0863)">
		<stop  offset="0" style="stop-color:#272D33"/>
		<stop  offset="0.2984" style="stop-color:#21262A"/>
		<stop  offset="0.5" style="stop-color:#1A1E21"/>
		<stop  offset="0.6207" style="stop-color:#171B1D"/>
		<stop  offset="1" style="stop-color:#111314"/>
	</linearGradient>
	<polygon class="st10" points="1960.3,400.5 1940,393.6 1913,437.6 	"/>
	
		<linearGradient id="SVGID_11_" gradientUnits="userSpaceOnUse" x1="879.4009" y1="552.8843" x2="894.2634" y2="552.8843" gradientTransform="matrix(-1 0 0 -1 2813.5115 814.0863)">
		<stop  offset="0" style="stop-color:#272D33"/>
		<stop  offset="0.2984" style="stop-color:#21262A"/>
		<stop  offset="0.5" style="stop-color:#1A1E21"/>
		<stop  offset="0.6207" style="stop-color:#171B1D"/>
		<stop  offset="1" style="stop-color:#111314"/>
	</linearGradient>
	<polygon class="st11" points="1934.1,264.8 1930.3,253.8 1919.2,257.6 1923,268.6 	"/>
	
		<linearGradient id="SVGID_12_" gradientUnits="userSpaceOnUse" x1="717.4383" y1="500.1281" x2="754.3702" y2="500.1281" gradientTransform="matrix(-1 0 0 -1 2813.5115 814.0863)">
		<stop  offset="0" style="stop-color:#272D33"/>
		<stop  offset="0.2984" style="stop-color:#21262A"/>
		<stop  offset="0.5" style="stop-color:#1A1E21"/>
		<stop  offset="0.6207" style="stop-color:#171B1D"/>
		<stop  offset="1" style="stop-color:#111314"/>
	</linearGradient>
	<polygon class="st12" points="2096.1,317.2 2079.8,303.3 2059.1,324.6 	"/>
	
		<linearGradient id="SVGID_13_" gradientUnits="userSpaceOnUse" x1="1156.5532" y1="366.6272" x2="1175.1031" y2="366.6272" gradientTransform="matrix(-1 0 0 -1 2813.5115 814.0863)">
		<stop  offset="0" style="stop-color:#272D33"/>
		<stop  offset="0.2984" style="stop-color:#21262A"/>
		<stop  offset="0.5" style="stop-color:#1A1E21"/>
		<stop  offset="0.6207" style="stop-color:#171B1D"/>
		<stop  offset="1" style="stop-color:#111314"/>
	</linearGradient>
	<polygon class="st13" points="1657,457.3 1638.4,437.6 1638.4,454.2 	"/>
	
		<linearGradient id="SVGID_14_" gradientUnits="userSpaceOnUse" x1="1138.6781" y1="70.8348" x2="1166.6926" y2="70.8348" gradientTransform="matrix(-1 0 0 -1 2813.5115 814.0863)">
		<stop  offset="0" style="stop-color:#272D33"/>
		<stop  offset="0.2984" style="stop-color:#21262A"/>
		<stop  offset="0.5" style="stop-color:#1A1E21"/>
		<stop  offset="0.6207" style="stop-color:#171B1D"/>
		<stop  offset="1" style="stop-color:#111314"/>
	</linearGradient>
	<polygon class="st14" points="1674.8,756 1653.8,748.8 1669.6,712.7 1646.8,708.6 1646.8,777.9 	"/>
	
		<linearGradient id="SVGID_15_" gradientUnits="userSpaceOnUse" x1="1079.4344" y1="-31.8584" x2="1159.8973" y2="-31.8584" gradientTransform="matrix(-1 0 0 -1 2813.5115 814.0863)">
		<stop  offset="0" style="stop-color:#272D33"/>
		<stop  offset="0.2984" style="stop-color:#21262A"/>
		<stop  offset="0.5" style="stop-color:#1A1E21"/>
		<stop  offset="0.6207" style="stop-color:#171B1D"/>
		<stop  offset="1" style="stop-color:#111314"/>
	</linearGradient>
	<polygon class="st15" points="1734.1,852.8 1660.4,824.4 1653.6,867.5 	"/>
	
		<linearGradient id="SVGID_16_" gradientUnits="userSpaceOnUse" x1="968.3578" y1="110.2479" x2="999.2842" y2="110.2479" gradientTransform="matrix(-1 0 0 -1 2813.5115 814.0863)">
		<stop  offset="0" style="stop-color:#272D33"/>
		<stop  offset="0.2984" style="stop-color:#21262A"/>
		<stop  offset="0.5" style="stop-color:#1A1E21"/>
		<stop  offset="0.6207" style="stop-color:#171B1D"/>
		<stop  offset="1" style="stop-color:#111314"/>
	</linearGradient>
	<polygon class="st16" points="1845.2,701.8 1814.2,691.5 1825.9,716.2 	"/>
	
		<linearGradient id="SVGID_17_" gradientUnits="userSpaceOnUse" x1="1002.6483" y1="10.1976" x2="1058.609" y2="10.1976" gradientTransform="matrix(-1 0 0 -1 2813.5115 814.0863)">
		<stop  offset="0" style="stop-color:#272D33"/>
		<stop  offset="0.2984" style="stop-color:#21262A"/>
		<stop  offset="0.5" style="stop-color:#1A1E21"/>
		<stop  offset="0.6207" style="stop-color:#171B1D"/>
		<stop  offset="1" style="stop-color:#111314"/>
	</linearGradient>
	<polygon class="st17" points="1768.3,772.5 1754.9,834.7 1810.9,835.3 	"/>
	
		<linearGradient id="SVGID_18_" gradientUnits="userSpaceOnUse" x1="954.5194" y1="45.0015" x2="982.6282" y2="45.0015" gradientTransform="matrix(-1 0 0 -1 2813.5115 814.0863)">
		<stop  offset="0" style="stop-color:#272D33"/>
		<stop  offset="0.2984" style="stop-color:#21262A"/>
		<stop  offset="0.5" style="stop-color:#1A1E21"/>
		<stop  offset="0.6207" style="stop-color:#171B1D"/>
		<stop  offset="1" style="stop-color:#111314"/>
	</linearGradient>
	<polygon class="st18" points="1830.9,774.5 1859,779.9 1835.2,758.3 	"/>
	
		<linearGradient id="SVGID_19_" gradientUnits="userSpaceOnUse" x1="1011.3417" y1="62.1679" x2="1025.5432" y2="62.1679" gradientTransform="matrix(-1 0 0 -1 2813.5115 814.0863)">
		<stop  offset="0" style="stop-color:#272D33"/>
		<stop  offset="0.2984" style="stop-color:#21262A"/>
		<stop  offset="0.5" style="stop-color:#1A1E21"/>
		<stop  offset="0.6207" style="stop-color:#171B1D"/>
		<stop  offset="1" style="stop-color:#111314"/>
	</linearGradient>
	<polygon class="st19" points="1799.3,759 1802.2,747.7 1790.8,744.8 1788,756.2 	"/>
	
		<linearGradient id="SVGID_20_" gradientUnits="userSpaceOnUse" x1="1058.5159" y1="69.9609" x2="1125.7754" y2="69.9609" gradientTransform="matrix(-1 0 0 -1 2813.5115 814.0863)">
		<stop  offset="0" style="stop-color:#272D33"/>
		<stop  offset="0.2984" style="stop-color:#21262A"/>
		<stop  offset="0.5" style="stop-color:#1A1E21"/>
		<stop  offset="0.6207" style="stop-color:#171B1D"/>
		<stop  offset="1" style="stop-color:#111314"/>
	</linearGradient>
	<polygon class="st20" points="1747,726.4 1687.7,744.4 1755,761.8 	"/>
	
		<linearGradient id="SVGID_21_" gradientUnits="userSpaceOnUse" x1="1128.9307" y1="368.1153" x2="1144.2858" y2="368.1153" gradientTransform="matrix(-1 0 0 -1 2813.5115 814.0863)">
		<stop  offset="0" style="stop-color:#272D33"/>
		<stop  offset="0.2984" style="stop-color:#21262A"/>
		<stop  offset="0.5" style="stop-color:#1A1E21"/>
		<stop  offset="0.6207" style="stop-color:#171B1D"/>
		<stop  offset="1" style="stop-color:#111314"/>
	</linearGradient>
	<polygon class="st21" points="1669.2,449.1 1680,453.6 1684.6,442.9 1673.8,438.3 	"/>
	
		<linearGradient id="SVGID_22_" gradientUnits="userSpaceOnUse" x1="1142.6105" y1="184.9464" x2="1185.8658" y2="184.9464" gradientTransform="matrix(-1 0 0 -1 2813.5115 814.0863)">
		<stop  offset="0" style="stop-color:#272D33"/>
		<stop  offset="0.2984" style="stop-color:#21262A"/>
		<stop  offset="0.5" style="stop-color:#1A1E21"/>
		<stop  offset="0.6207" style="stop-color:#171B1D"/>
		<stop  offset="1" style="stop-color:#111314"/>
	</linearGradient>
	<polygon class="st22" points="1670.9,610.9 1627.6,635.5 1667.7,647.4 	"/>
	
		<linearGradient id="SVGID_23_" gradientUnits="userSpaceOnUse" x1="1103.0486" y1="108.8779" x2="1119.2974" y2="108.8779" gradientTransform="matrix(-1 0 0 -1 2813.5115 814.0863)">
		<stop  offset="0" style="stop-color:#272D33"/>
		<stop  offset="0.2984" style="stop-color:#21262A"/>
		<stop  offset="0.5" style="stop-color:#1A1E21"/>
		<stop  offset="0.6207" style="stop-color:#171B1D"/>
		<stop  offset="1" style="stop-color:#111314"/>
	</linearGradient>
	<polygon class="st23" points="1700.8,713.3 1710.5,706.8 1703.9,697.1 1694.2,703.6 	"/>
	
		<linearGradient id="SVGID_24_" gradientUnits="userSpaceOnUse" x1="1149.6226" y1="785.7178" x2="1175.1031" y2="785.7178" gradientTransform="matrix(-1 0 0 -1 2813.5115 814.0863)">
		<stop  offset="0" style="stop-color:#272D33"/>
		<stop  offset="0.2984" style="stop-color:#21262A"/>
		<stop  offset="0.5" style="stop-color:#1A1E21"/>
		<stop  offset="0.6207" style="stop-color:#171B1D"/>
		<stop  offset="1" style="stop-color:#111314"/>
	</linearGradient>
	<polygon class="st24" points="1663.9,22.8 1646.2,16.2 1638.4,33.9 1638.4,40.5 	"/>
	
		<linearGradient id="SVGID_25_" gradientUnits="userSpaceOnUse" x1="1160.6079" y1="746.2891" x2="1175.1031" y2="746.2891" gradientTransform="matrix(-1 0 0 -1 2813.5115 814.0863)">
		<stop  offset="0" style="stop-color:#272D33"/>
		<stop  offset="0.2984" style="stop-color:#21262A"/>
		<stop  offset="0.5" style="stop-color:#1A1E21"/>
		<stop  offset="0.6207" style="stop-color:#171B1D"/>
		<stop  offset="1" style="stop-color:#111314"/>
	</linearGradient>
	<polygon class="st25" points="1652,74.8 1652.9,60.8 1638.4,69.5 1638.4,71.1 	"/>
	
		<linearGradient id="SVGID_26_" gradientUnits="userSpaceOnUse" x1="1114.5948" y1="677.7296" x2="1158.5061" y2="677.7296" gradientTransform="matrix(-1 0 0 -1 2813.5115 814.0863)">
		<stop  offset="0" style="stop-color:#272D33"/>
		<stop  offset="0.2984" style="stop-color:#21262A"/>
		<stop  offset="0.5" style="stop-color:#1A1E21"/>
		<stop  offset="0.6207" style="stop-color:#171B1D"/>
		<stop  offset="1" style="stop-color:#111314"/>
	</linearGradient>
	<polygon class="st26" points="1677.4,151.1 1698.9,126.6 1655,121.6 	"/>
	
		<linearGradient id="SVGID_27_" gradientUnits="userSpaceOnUse" x1="1120.8455" y1="724.5711" x2="1139.3926" y2="724.5711" gradientTransform="matrix(-1 0 0 -1 2813.5115 814.0863)">
		<stop  offset="0" style="stop-color:#272D33"/>
		<stop  offset="0.2984" style="stop-color:#21262A"/>
		<stop  offset="0.5" style="stop-color:#1A1E21"/>
		<stop  offset="0.6207" style="stop-color:#171B1D"/>
		<stop  offset="1" style="stop-color:#111314"/>
	</linearGradient>
	<polygon class="st27" points="1692.7,84.3 1674.1,86.7 1679.7,94.7 	"/>
	
		<linearGradient id="SVGID_28_" gradientUnits="userSpaceOnUse" x1="1152.6853" y1="712.1168" x2="1162.1876" y2="712.1168" gradientTransform="matrix(-1 0 0 -1 2813.5115 814.0863)">
		<stop  offset="0" style="stop-color:#272D33"/>
		<stop  offset="0.2984" style="stop-color:#21262A"/>
		<stop  offset="0.5" style="stop-color:#1A1E21"/>
		<stop  offset="0.6207" style="stop-color:#171B1D"/>
		<stop  offset="1" style="stop-color:#111314"/>
	</linearGradient>
	<polygon class="st28" points="1660.8,102.8 1656.9,97.2 1651.3,101.2 1655.3,106.7 	"/>
	
		<linearGradient id="SVGID_29_" gradientUnits="userSpaceOnUse" x1="1029.6101" y1="200.8766" x2="1109.1686" y2="200.8766" gradientTransform="matrix(-1 0 0 -1 2813.5115 814.0863)">
		<stop  offset="0" style="stop-color:#272D33"/>
		<stop  offset="0.2984" style="stop-color:#21262A"/>
		<stop  offset="0.5" style="stop-color:#1A1E21"/>
		<stop  offset="0.6207" style="stop-color:#171B1D"/>
		<stop  offset="1" style="stop-color:#111314"/>
	</linearGradient>
	<polygon class="st29" points="1783.9,598.7 1704.3,584.2 1764.9,642.2 	"/>
	
		<linearGradient id="SVGID_30_" gradientUnits="userSpaceOnUse" x1="1067.8319" y1="592.201" x2="1111.191" y2="592.201" gradientTransform="matrix(-1 0 0 -1 2813.5115 814.0863)">
		<stop  offset="0" style="stop-color:#272D33"/>
		<stop  offset="0.2984" style="stop-color:#21262A"/>
		<stop  offset="0.5" style="stop-color:#1A1E21"/>
		<stop  offset="0.6207" style="stop-color:#171B1D"/>
		<stop  offset="1" style="stop-color:#111314"/>
	</linearGradient>
	<polygon class="st30" points="1745.7,195.3 1707.4,201.5 1702.3,248.5 	"/>
	
		<linearGradient id="SVGID_31_" gradientUnits="userSpaceOnUse" x1="976.9047" y1="567.1598" x2="1071.1418" y2="567.1598" gradientTransform="matrix(-1 0 0 -1 2813.5115 814.0863)">
		<stop  offset="0" style="stop-color:#272D33"/>
		<stop  offset="0.2984" style="stop-color:#21262A"/>
		<stop  offset="0.5" style="stop-color:#1A1E21"/>
		<stop  offset="0.6207" style="stop-color:#171B1D"/>
		<stop  offset="1" style="stop-color:#111314"/>
	</linearGradient>
	<polygon class="st31" points="1836.6,244.3 1793.7,203.3 1742.4,290.6 	"/>
	
		<linearGradient id="SVGID_32_" gradientUnits="userSpaceOnUse" x1="968.6746" y1="446.5327" x2="994.6229" y2="446.5327" gradientTransform="matrix(-1 0 0 -1 2813.5115 814.0863)">
		<stop  offset="0" style="stop-color:#272D33"/>
		<stop  offset="0.2984" style="stop-color:#21262A"/>
		<stop  offset="0.5" style="stop-color:#1A1E21"/>
		<stop  offset="0.6207" style="stop-color:#171B1D"/>
		<stop  offset="1" style="stop-color:#111314"/>
	</linearGradient>
	<polygon class="st32" points="1844.8,378.7 1823.9,356.4 1818.9,374.2 	"/>
	<g>
		<defs>
			<path id="SVGID_33_" d="M1071.3,1022.6l-69.6,76.3c-3.6,4-3.6,10.1,0.1,14l70.2,75.8c4.1,4.5,11.2,4.4,15.3-0.1l69.6-76.3
				c3.6-4,3.6-10.1-0.1-14l-70.2-75.8C1082.5,1018.1,1075.4,1018.1,1071.3,1022.6z"/>
		</defs>
		<clipPath id="SVGID_34_">
			<use xlink:href="#SVGID_33_"  style="overflow:visible;"/>
		</clipPath>
		<g class="st33">
			<g>
				<polygon class="st34" points="1079,1014.2 1038.7,1105.8 1079.3,1105.6 1119.9,1105.5 				"/>
				<polygon class="st35" points="1163.3,1105.3 1119.9,1105.5 1079,1014.2 				"/>
				<polygon class="st36" points="995.4,1106 1038.7,1105.8 1079,1014.2 				"/>
				<polygon class="st37" points="1079.7,1197 1119.9,1105.5 1079.3,1105.6 1038.7,1105.8 				"/>
				<polygon class="st38" points="995.4,1106 1038.7,1105.8 1079.7,1197 				"/>
				<polygon class="st39" points="1163.3,1105.3 1119.9,1105.5 1079.7,1197 				"/>
			</g>
			<polygon class="st40" points="1054.3,1070.4 1094.7,1049.3 1102.1,1065.7 1042.6,1096.9 			"/>
			<path class="st40" d="M1107,1076.8c-1.8,1.8-53.2,29-53.2,29l15.2-0.1l40.8-22.7L1107,1076.8z"/>
		</g>
	</g>
	<g>
		<defs>
			<path id="SVGID_35_" d="M1468.6,1018.4l-34,31.9c-3.1,2.9-4.8,6.9-4.8,11.2l0.3,78.7c0,4.2,1.8,8.3,4.9,11.1l34.3,31.6
				c5.9,5.4,15,5.4,20.8-0.1l34-31.9c3.1-2.9,4.8-6.9,4.8-11.2l-0.3-78.7c0-4.2-1.8-8.3-4.9-11.1l-34.3-31.6
				C1483.5,1012.9,1474.4,1012.9,1468.6,1018.4z"/>
		</defs>
		<clipPath id="SVGID_36_">
			<use xlink:href="#SVGID_35_"  style="overflow:visible;"/>
		</clipPath>
		<g class="st41">
			<polygon class="st42" points="1505.4,1124.8 1505.3,1076.3 1479.1,1052.1 1453.1,1076.5 1453.3,1125 1479.5,1149.2 			"/>
			<polygon class="st43" points="1478.9,1008.7 1479.1,1052.1 1453.1,1076.5 1429.7,1054.9 			"/>
			<polygon class="st44" points="1453.3,1125 1430.1,1146.8 1479.6,1192.6 1479.5,1149.2 			"/>
			<polygon class="st45" points="1505.4,1124.8 1528.8,1146.4 1528.5,1054.5 1505.3,1076.3 			"/>
			<polygon class="st46" points="1453.3,1125 1453.1,1076.5 1429.7,1054.9 1430.1,1146.8 			"/>
			<polygon class="st47" points="1479.1,1052.1 1478.9,1008.7 1528.5,1054.5 1505.3,1076.3 			"/>
			<polygon class="st48" points="1528.8,1146.4 1505.4,1124.8 1479.5,1149.2 1479.6,1192.6 			"/>
			<polygon class="st49" points="1453.2,1106.3 1499.5,1071 1505.3,1076.3 1505.3,1085.8 1453.3,1125 			"/>
			<polygon class="st49" points="1461.9,1132.9 1505.3,1097.9 1505.4,1104.8 1465.7,1136.4 			"/>
		</g>
	</g>
	<g>
		<defs>
			<path id="SVGID_37_" d="M1643.4,1020.4l-36.8,37.1c-4.4,4.4-6.8,10.3-6.8,16.5l0.2,52.3c0,6.2,2.5,12.1,6.9,16.5l37.1,36.8
				c4.4,4.4,10.3,6.8,16.5,6.8l52.3-0.2c6.2,0,12.1-2.5,16.5-6.9l36.8-37.1c4.4-4.4,6.8-10.3,6.8-16.5l-0.2-52.3
				c0-6.2-2.5-12.1-6.9-16.5l-37.1-36.8c-4.4-4.4-10.3-6.8-16.5-6.8l-52.3,0.2C1653.7,1013.5,1647.8,1016,1643.4,1020.4z"/>
		</defs>
		<clipPath id="SVGID_38_">
			<use xlink:href="#SVGID_37_"  style="overflow:visible;"/>
		</clipPath>
		<g class="st50">
			<polygon class="st51" points="1705.2,1053.9 1667.2,1054.1 1640.5,1081 1640.7,1118.9 1667.6,1145.6 1705.5,1145.5 
				1732.2,1118.6 1732.1,1080.6 			"/>
			<polygon class="st52" points="1640.5,1081 1599.8,1064.3 1650.2,1013.5 1667.2,1054.1 			"/>
			<polygon class="st53" points="1640.7,1118.9 1600.1,1135.9 1650.9,1186.4 1667.6,1145.6 			"/>
			<polygon class="st54" points="1732.2,1118.6 1732.1,1080.6 1772.7,1063.7 1772.9,1135.3 			"/>
			<polygon class="st55" points="1640.7,1118.9 1640.5,1081 1599.8,1064.3 1600.1,1135.9 			"/>
			<polygon class="st56" points="1667.6,1145.6 1705.5,1145.5 1722.5,1186.1 1650.9,1186.4 			"/>
			<polygon class="st57" points="1705.2,1053.9 1721.8,1013.2 1650.2,1013.5 1667.2,1054.1 			"/>
			<polygon class="st58" points="1732.2,1118.6 1772.9,1135.3 1722.5,1186.1 1705.5,1145.5 			"/>
			<polygon class="st59" points="1732.1,1080.6 1705.2,1053.9 1721.8,1013.2 1772.7,1063.7 			"/>
			<polygon class="st60" points="1650.7,1128.9 1720.8,1069.4 1732.1,1080.6 1732.1,1089.4 1664.6,1142.7 			"/>
			<polygon class="st60" points="1674.8,1145.6 1732.2,1097.2 1732.2,1104.8 1685.1,1145.6 			"/>
		</g>
	</g>
	<g>
		<defs>
			<path id="SVGID_39_" d="M1207.2,1066.4l26.3-30.5c3-3.5,7.4-5.5,12-5.5l88.2-0.3c4.6,0,9,2,12.1,5.4l26.5,30.3c5.3,6,5.3,15,0,21
				l-70.2,80.4c-6.3,7.2-17.6,7.3-23.9,0.1l-70.8-79.9C1202.1,1081.4,1202,1072.4,1207.2,1066.4z"/>
		</defs>
		<clipPath id="SVGID_40_">
			<use xlink:href="#SVGID_39_"  style="overflow:visible;"/>
		</clipPath>
		<g class="st61">
			<polygon class="st62" points="1341.1,1076.4 1289.4,1030.2 1238.5,1076.8 			"/>
			<polygon class="st63" points="1238.5,1076.8 1290.2,1180.8 1341.1,1076.4 			"/>
			<polygon class="st64" points="1341,1030 1341.1,1076.4 1289.4,1030.2 			"/>
			<polygon class="st64" points="1238.3,1030.4 1238.5,1076.8 1289.4,1030.2 			"/>
			<polygon class="st64" points="1341.1,1076.4 1381.4,1076.2 1290.2,1180.8 			"/>
			<polygon class="st64" points="1198.2,1076.9 1238.5,1076.8 1290.2,1180.8 			"/>
			<polygon class="st63" points="1198.2,1076.9 1238.3,1030.4 1238.5,1076.8 			"/>
			<polygon class="st63" points="1381.4,1076.2 1341,1030 1341.1,1076.4 			"/>
			<polygon class="st65" points="1280.7,1076.6 1309.3,1047.9 1320,1057.5 1300.4,1076.5 			"/>
			<polygon class="st65" points="1320.1,1076.5 1330.8,1067.1 1325.4,1062.3 1311.9,1076.5 			"/>
		</g>
	</g>
	<rect x="177.1" y="171.1" class="st66" width="383.7" height="162.2"/>
	<rect x="177.1" y="347.5" class="st66" width="383.7" height="162.2"/>
	<rect x="600" y="347.5" class="st66" width="358.1" height="162.2"/>
	<text transform="matrix(1 0 0 1 298.709 455.1981)" class="st67 st68 st69">106</text>
	<text transform="matrix(1 0 0 1 739.7178 454.9707)" class="st67 st68 st69">54</text>
	<rect x="200.6" y="185.6" class="st1" width="330.7" height="139.5"/>
	<text transform="matrix(1 0 0 1 200.5972 197.002)"><tspan x="0" y="0" class="st67 st68 st70">Lorem ipsum dolor sit amet, consectetuer adipis</tspan><tspan x="320" y="0" class="st67 st68 st70">-</tspan><tspan x="0" y="19.2" class="st67 st68 st70">cing elit, sed diam nonummy nibh euismod tinci</tspan><tspan x="320.9" y="19.2" class="st67 st68 st70">-</tspan><tspan x="0" y="38.4" class="st67 st68 st70">dunt ut laoreet dolore magna aliquam erat volut</tspan><tspan x="321.6" y="38.4" class="st67 st68 st70">-</tspan><tspan x="0" y="57.6" class="st67 st68 st70">pat. Ut wisi enim ad minim veniam, quis nostrud </tspan><tspan x="0" y="76.8" class="st67 st68 st70">exerci tation ullamcorper suscipit lobortis nisl ut </tspan><tspan x="0" y="96" class="st67 st68 st70">aliquip ex ea commodo consequat. Duis autem </tspan><tspan x="0" y="115.2" class="st67 st68 st70">vel eum iriure dolor in hendrerit in vulputate velit </tspan></text>
	<g>
		<linearGradient id="SVGID_41_" gradientUnits="userSpaceOnUse" x1="255.5724" y1="739.2611" x2="307.541" y2="603.9898">
			<stop  offset="0" style="stop-color:#A2539A"/>
			<stop  offset="0.1528" style="stop-color:#89378E"/>
			<stop  offset="0.2443" style="stop-color:#7F2C89"/>
			<stop  offset="0.338" style="stop-color:#83308B"/>
			<stop  offset="0.4404" style="stop-color:#8F3E91"/>
			<stop  offset="0.5454" style="stop-color:#A2539A"/>
			<stop  offset="0.7518" style="stop-color:#BC6E6C"/>
			<stop  offset="1" style="stop-color:#DF9130"/>
		</linearGradient>
		<polygon class="st71" points="274.2,612.2 274.2,655 274.2,658.1 274.2,718.4 286,725.2 290.2,727.6 294.8,650.1 283,628.3 		"/>
		<linearGradient id="SVGID_42_" gradientUnits="userSpaceOnUse" x1="194.8503" y1="715.9328" x2="246.8189" y2="580.6616">
			<stop  offset="0" style="stop-color:#A2539A"/>
			<stop  offset="0.1528" style="stop-color:#89378E"/>
			<stop  offset="0.2443" style="stop-color:#7F2C89"/>
			<stop  offset="0.338" style="stop-color:#83308B"/>
			<stop  offset="0.4404" style="stop-color:#8F3E91"/>
			<stop  offset="0.5454" style="stop-color:#A2539A"/>
			<stop  offset="0.7518" style="stop-color:#BC6E6C"/>
			<stop  offset="1" style="stop-color:#DF9130"/>
		</linearGradient>
		<polygon class="st72" points="242.7,577.2 243.7,564.7 224.9,617.2 222.8,651.1 228.5,642.1 238.4,626.4 		"/>
		<linearGradient id="SVGID_43_" gradientUnits="userSpaceOnUse" x1="223.8716" y1="727.0822" x2="275.8402" y2="591.811">
			<stop  offset="0" style="stop-color:#A2539A"/>
			<stop  offset="0.1528" style="stop-color:#89378E"/>
			<stop  offset="0.2443" style="stop-color:#7F2C89"/>
			<stop  offset="0.338" style="stop-color:#83308B"/>
			<stop  offset="0.4404" style="stop-color:#8F3E91"/>
			<stop  offset="0.5454" style="stop-color:#A2539A"/>
			<stop  offset="0.7518" style="stop-color:#BC6E6C"/>
			<stop  offset="1" style="stop-color:#DF9130"/>
		</linearGradient>
		<polygon class="st73" points="291.4,638.7 278.8,598.3 252.3,565.8 274.1,607 		"/>
		<linearGradient id="SVGID_44_" gradientUnits="userSpaceOnUse" x1="271.5807" y1="745.4112" x2="323.5494" y2="610.1399">
			<stop  offset="0" style="stop-color:#A2539A"/>
			<stop  offset="0.1528" style="stop-color:#89378E"/>
			<stop  offset="0.2443" style="stop-color:#7F2C89"/>
			<stop  offset="0.338" style="stop-color:#83308B"/>
			<stop  offset="0.4404" style="stop-color:#8F3E91"/>
			<stop  offset="0.5454" style="stop-color:#A2539A"/>
			<stop  offset="0.7518" style="stop-color:#BC6E6C"/>
			<stop  offset="1" style="stop-color:#DF9130"/>
		</linearGradient>
		<polygon class="st74" points="267,728.8 264.4,732.3 265.7,734.3 278.3,753.5 289.8,730 287.2,728.5 273.4,720.6 		"/>
		<linearGradient id="SVGID_45_" gradientUnits="userSpaceOnUse" x1="214.2625" y1="723.3906" x2="266.2312" y2="588.1194">
			<stop  offset="0" style="stop-color:#A2539A"/>
			<stop  offset="0.1528" style="stop-color:#89378E"/>
			<stop  offset="0.2443" style="stop-color:#7F2C89"/>
			<stop  offset="0.338" style="stop-color:#83308B"/>
			<stop  offset="0.4404" style="stop-color:#8F3E91"/>
			<stop  offset="0.5454" style="stop-color:#A2539A"/>
			<stop  offset="0.7518" style="stop-color:#BC6E6C"/>
			<stop  offset="1" style="stop-color:#DF9130"/>
		</linearGradient>
		<polygon class="st75" points="269.2,650.7 271.9,653 271.9,607.8 248.6,563.9 246.5,559.9 245.3,574.4 240.8,626.3 		"/>
		<linearGradient id="SVGID_46_" gradientUnits="userSpaceOnUse" x1="261.4288" y1="741.511" x2="313.3975" y2="606.2397">
			<stop  offset="0" style="stop-color:#A2539A"/>
			<stop  offset="0.1528" style="stop-color:#89378E"/>
			<stop  offset="0.2443" style="stop-color:#7F2C89"/>
			<stop  offset="0.338" style="stop-color:#83308B"/>
			<stop  offset="0.4404" style="stop-color:#8F3E91"/>
			<stop  offset="0.5454" style="stop-color:#A2539A"/>
			<stop  offset="0.7518" style="stop-color:#BC6E6C"/>
			<stop  offset="1" style="stop-color:#DF9130"/>
		</linearGradient>
		<polygon class="st76" points="258.6,732.8 249.8,731.6 273.5,750.4 263.3,735 262.2,733.3 		"/>
		<linearGradient id="SVGID_47_" gradientUnits="userSpaceOnUse" x1="230.8889" y1="729.7781" x2="282.8575" y2="594.5069">
			<stop  offset="0" style="stop-color:#A2539A"/>
			<stop  offset="0.1528" style="stop-color:#89378E"/>
			<stop  offset="0.2443" style="stop-color:#7F2C89"/>
			<stop  offset="0.338" style="stop-color:#83308B"/>
			<stop  offset="0.4404" style="stop-color:#8F3E91"/>
			<stop  offset="0.5454" style="stop-color:#A2539A"/>
			<stop  offset="0.7518" style="stop-color:#BC6E6C"/>
			<stop  offset="1" style="stop-color:#DF9130"/>
		</linearGradient>
		<polygon class="st77" points="265.1,727.4 271.9,718.7 271.9,656.1 268,652.7 239.9,628.6 235.3,635.8 222.6,655.7 246.6,728.8 
			257.8,730.4 262.4,731 		"/>
	</g>
	<g>
		
			<linearGradient id="SVGID_48_" gradientUnits="userSpaceOnUse" x1="-4537.0225" y1="696.7688" x2="-4446.3481" y2="594.5384" gradientTransform="matrix(-1 0 0 1 -3786.4832 0)">
			<stop  offset="0.359" style="stop-color:#6FB253"/>
			<stop  offset="0.4631" style="stop-color:#76B552"/>
			<stop  offset="0.6194" style="stop-color:#8BBD4F"/>
			<stop  offset="0.7261" style="stop-color:#9DC44D"/>
			<stop  offset="1" style="stop-color:#D9DF41"/>
		</linearGradient>
		<polygon class="st78" points="667.6,559.8 705.9,628.3 683.1,664.2 678.3,656.5 665.2,635.6 		"/>
		
			<linearGradient id="SVGID_49_" gradientUnits="userSpaceOnUse" x1="-4513.4912" y1="717.6398" x2="-4422.8174" y2="615.4094" gradientTransform="matrix(-1 0 0 1 -3786.4832 0)">
			<stop  offset="0.359" style="stop-color:#6FB253"/>
			<stop  offset="0.4631" style="stop-color:#76B552"/>
			<stop  offset="0.6194" style="stop-color:#8BBD4F"/>
			<stop  offset="0.7261" style="stop-color:#9DC44D"/>
			<stop  offset="1" style="stop-color:#D9DF41"/>
		</linearGradient>
		<polygon class="st79" points="684.4,667.2 702,639.4 676.3,710.6 679.5,693.4 684.4,667.2 		"/>
		
			<linearGradient id="SVGID_50_" gradientUnits="userSpaceOnUse" x1="-4524.5571" y1="707.8249" x2="-4433.8833" y2="605.5945" gradientTransform="matrix(-1 0 0 1 -3786.4832 0)">
			<stop  offset="0.359" style="stop-color:#6FB253"/>
			<stop  offset="0.4631" style="stop-color:#76B552"/>
			<stop  offset="0.6194" style="stop-color:#8BBD4F"/>
			<stop  offset="0.7261" style="stop-color:#9DC44D"/>
			<stop  offset="1" style="stop-color:#D9DF41"/>
		</linearGradient>
		<polygon class="st80" points="662.6,635.5 657.3,641.3 639,661.4 635,610.1 641.7,598.9 665,560.1 		"/>
		
			<linearGradient id="SVGID_51_" gradientUnits="userSpaceOnUse" x1="-4482.1943" y1="745.3989" x2="-4391.52" y2="643.1686" gradientTransform="matrix(-1 0 0 1 -3786.4832 0)">
			<stop  offset="0.359" style="stop-color:#6FB253"/>
			<stop  offset="0.4631" style="stop-color:#76B552"/>
			<stop  offset="0.6194" style="stop-color:#8BBD4F"/>
			<stop  offset="0.7261" style="stop-color:#9DC44D"/>
			<stop  offset="1" style="stop-color:#D9DF41"/>
		</linearGradient>
		<polygon class="st81" points="635.6,652.5 636.5,664.7 637.4,696.6 637.8,713.3 620.8,721.8 617.5,632.6 626.2,621.5 632.5,613.3 
					"/>
		
			<linearGradient id="SVGID_52_" gradientUnits="userSpaceOnUse" x1="-4461.0137" y1="764.1855" x2="-4370.3394" y2="661.9551" gradientTransform="matrix(-1 0 0 1 -3786.4832 0)">
			<stop  offset="0.359" style="stop-color:#6FB253"/>
			<stop  offset="0.4631" style="stop-color:#76B552"/>
			<stop  offset="0.6194" style="stop-color:#8BBD4F"/>
			<stop  offset="0.7261" style="stop-color:#9DC44D"/>
			<stop  offset="1" style="stop-color:#D9DF41"/>
		</linearGradient>
		<polygon class="st82" points="666.4,729.2 639.3,750.2 645.7,740.5 650.8,732.8 		"/>
		
			<linearGradient id="SVGID_53_" gradientUnits="userSpaceOnUse" x1="-4454.2349" y1="770.1981" x2="-4363.5605" y2="667.9677" gradientTransform="matrix(-1 0 0 1 -3786.4832 0)">
			<stop  offset="0.359" style="stop-color:#6FB253"/>
			<stop  offset="0.4631" style="stop-color:#76B552"/>
			<stop  offset="0.6194" style="stop-color:#8BBD4F"/>
			<stop  offset="0.7261" style="stop-color:#9DC44D"/>
			<stop  offset="1" style="stop-color:#D9DF41"/>
		</linearGradient>
		<polygon class="st83" points="640.6,743.3 633.8,753.5 621.3,724.5 638.7,715.8 645.7,727.1 648.4,731.6 		"/>
		
			<linearGradient id="SVGID_54_" gradientUnits="userSpaceOnUse" x1="-4526.6006" y1="706.0126" x2="-4435.9263" y2="603.7822" gradientTransform="matrix(-1 0 0 1 -3786.4832 0)">
			<stop  offset="0.359" style="stop-color:#6FB253"/>
			<stop  offset="0.4631" style="stop-color:#76B552"/>
			<stop  offset="0.6194" style="stop-color:#8BBD4F"/>
			<stop  offset="0.7261" style="stop-color:#9DC44D"/>
			<stop  offset="1" style="stop-color:#D9DF41"/>
		</linearGradient>
		<polygon class="st84" points="660.8,561.8 637.4,600.8 632.5,609 632.5,609 627.1,616 619.8,625.2 632.6,586.9 		"/>
		
			<linearGradient id="SVGID_55_" gradientUnits="userSpaceOnUse" x1="-4491.0366" y1="737.556" x2="-4400.3628" y2="635.3257" gradientTransform="matrix(-1 0 0 1 -3786.4832 0)">
			<stop  offset="0.359" style="stop-color:#6FB253"/>
			<stop  offset="0.4631" style="stop-color:#76B552"/>
			<stop  offset="0.6194" style="stop-color:#8BBD4F"/>
			<stop  offset="0.7261" style="stop-color:#9DC44D"/>
			<stop  offset="1" style="stop-color:#D9DF41"/>
		</linearGradient>
		<polygon class="st85" points="647.8,725.5 640.5,713.7 640.5,713.7 640.5,712.7 639.2,665.1 657.8,644.7 663.7,638.2 681.7,667 
			670.8,725.4 653,729.5 650.7,730.1 		"/>
	</g>
	<g>
		<linearGradient id="SVGID_56_" gradientUnits="userSpaceOnUse" x1="476.2033" y1="740.7416" x2="521.4182" y2="601.0954">
			<stop  offset="0" style="stop-color:#33398B"/>
			<stop  offset="9.084535e-02" style="stop-color:#384693"/>
			<stop  offset="0.6234" style="stop-color:#65A8DE"/>
			<stop  offset="0.6831" style="stop-color:#75A8C9"/>
			<stop  offset="0.8068" style="stop-color:#9EA992"/>
			<stop  offset="0.9827" style="stop-color:#E0AB3A"/>
			<stop  offset="1" style="stop-color:#E7AB31"/>
		</linearGradient>
		<polygon class="st86" points="508.6,697.4 493.1,705.3 469.1,717.7 455.4,748.3 		"/>
		<linearGradient id="SVGID_57_" gradientUnits="userSpaceOnUse" x1="430.5159" y1="725.9489" x2="475.7307" y2="586.3027">
			<stop  offset="0" style="stop-color:#33398B"/>
			<stop  offset="9.084535e-02" style="stop-color:#384693"/>
			<stop  offset="0.6234" style="stop-color:#65A8DE"/>
			<stop  offset="0.6831" style="stop-color:#75A8C9"/>
			<stop  offset="0.8068" style="stop-color:#9EA992"/>
			<stop  offset="0.9827" style="stop-color:#E0AB3A"/>
			<stop  offset="1" style="stop-color:#E7AB31"/>
		</linearGradient>
		<polygon class="st87" points="449.7,689 404.4,709.3 448.6,753.5 457.8,732.8 465.2,716.3 		"/>
		<linearGradient id="SVGID_58_" gradientUnits="userSpaceOnUse" x1="455.0462" y1="733.8914" x2="500.261" y2="594.2451">
			<stop  offset="0" style="stop-color:#33398B"/>
			<stop  offset="9.084535e-02" style="stop-color:#384693"/>
			<stop  offset="0.6234" style="stop-color:#65A8DE"/>
			<stop  offset="0.6831" style="stop-color:#75A8C9"/>
			<stop  offset="0.8068" style="stop-color:#9EA992"/>
			<stop  offset="0.9827" style="stop-color:#E0AB3A"/>
			<stop  offset="1" style="stop-color:#E7AB31"/>
		</linearGradient>
		<polygon class="st88" points="452.7,685.9 456.6,692.8 468.3,713.4 487.8,703.4 517.6,688.1 463.7,559.9 459.4,609.4 		"/>
		<linearGradient id="SVGID_59_" gradientUnits="userSpaceOnUse" x1="411.7606" y1="719.8763" x2="456.9754" y2="580.23">
			<stop  offset="0" style="stop-color:#33398B"/>
			<stop  offset="9.084535e-02" style="stop-color:#384693"/>
			<stop  offset="0.6234" style="stop-color:#65A8DE"/>
			<stop  offset="0.6831" style="stop-color:#75A8C9"/>
			<stop  offset="0.8068" style="stop-color:#9EA992"/>
			<stop  offset="0.9827" style="stop-color:#E0AB3A"/>
			<stop  offset="1" style="stop-color:#E7AB31"/>
		</linearGradient>
		<polygon class="st89" points="459.4,561.4 402.8,668.5 402.8,705.5 448.6,685 453.7,626.6 		"/>
	</g>
	<g>
		<linearGradient id="SVGID_60_" gradientUnits="userSpaceOnUse" x1="824.9617" y1="736.8618" x2="923.8087" y2="597.4355">
			<stop  offset="0" style="stop-color:#6A0000"/>
			<stop  offset="0.2872" style="stop-color:#9D2125"/>
			<stop  offset="0.6234" style="stop-color:#B32938"/>
			<stop  offset="0.6891" style="stop-color:#BA3E38"/>
			<stop  offset="0.8253" style="stop-color:#CB7539"/>
			<stop  offset="1" style="stop-color:#E4C43A"/>
		</linearGradient>
		<polygon class="st90" points="856.7,679.9 848.4,674.8 815.1,691.7 855,753.5 871.8,705 876.3,691.8 		"/>
		<linearGradient id="SVGID_61_" gradientUnits="userSpaceOnUse" x1="846.6847" y1="752.2623" x2="945.5316" y2="612.8361">
			<stop  offset="0" style="stop-color:#6A0000"/>
			<stop  offset="0.2872" style="stop-color:#9D2125"/>
			<stop  offset="0.6234" style="stop-color:#B32938"/>
			<stop  offset="0.6891" style="stop-color:#BA3E38"/>
			<stop  offset="0.8253" style="stop-color:#CB7539"/>
			<stop  offset="1" style="stop-color:#E4C43A"/>
		</linearGradient>
		<polygon class="st91" points="862,744 904.6,676.6 879.9,692.2 		"/>
		<linearGradient id="SVGID_62_" gradientUnits="userSpaceOnUse" x1="811.6856" y1="727.4495" x2="910.5325" y2="588.0233">
			<stop  offset="0" style="stop-color:#6A0000"/>
			<stop  offset="0.2872" style="stop-color:#9D2125"/>
			<stop  offset="0.6234" style="stop-color:#B32938"/>
			<stop  offset="0.6891" style="stop-color:#BA3E38"/>
			<stop  offset="0.8253" style="stop-color:#CB7539"/>
			<stop  offset="1" style="stop-color:#E4C43A"/>
		</linearGradient>
		<polygon class="st92" points="878.4,689 908.5,670 911.9,633.8 874.4,559.8 850.4,672 858.9,677.1 		"/>
		<linearGradient id="SVGID_63_" gradientUnits="userSpaceOnUse" x1="790.4694" y1="712.4082" x2="889.3163" y2="572.982">
			<stop  offset="0" style="stop-color:#6A0000"/>
			<stop  offset="0.2872" style="stop-color:#9D2125"/>
			<stop  offset="0.6234" style="stop-color:#B32938"/>
			<stop  offset="0.6891" style="stop-color:#BA3E38"/>
			<stop  offset="0.8253" style="stop-color:#CB7539"/>
			<stop  offset="1" style="stop-color:#E4C43A"/>
		</linearGradient>
		<polygon class="st93" points="870.3,562.4 814.3,639.9 814.3,688.2 821.1,684.8 846.9,671.7 		"/>
	</g>
	<rect x="600" y="171.1" class="st66" width="358.1" height="162.2"/>
	<rect x="673.7" y="212.9" class="st1" width="223" height="84.9"/>
	<text transform="matrix(1 0 0 1 673.7419 229.9832)"><tspan x="0" y="0" class="st94 st68 st95">Lorem ipsum dolor sit </tspan><tspan x="0" y="28.8" class="st94 st68 st95">amet, consectetuer </tspan><tspan x="0" y="57.6" class="st94 st68 st95">adipiscing elit, sed </tspan></text>
</g>
<g id="TEXT">
</g>
</svg>
