<svg xmlns="http://www.w3.org/2000/svg" xmlns:xlink="http://www.w3.org/1999/xlink" viewBox="0 0 500 500"><defs><style>.cls-1{fill:none;}.cls-2{clip-path:url(#clip-path);}.cls-3{fill:#a7dce2;}.cls-4{fill:#53aadf;}.cls-5{fill:#59a2d9;}.cls-6{fill:#72d0f4;}.cls-7{fill:#8bd7f8;}.cls-8{fill:#318aca;}.cls-9{fill:#87d0ce;}.cls-10{fill:#76cccc;}.cls-11{fill:#d0edf5;}.cls-12{fill:#fffffa;}</style><clipPath id="clip-path"><path class="cls-1" d="M126.68,19.77,19.77,126.68A67.48,67.48,0,0,0,0,174.41V325.59a67.48,67.48,0,0,0,19.77,47.73L126.68,480.23A67.48,67.48,0,0,0,174.41,500H325.59a67.48,67.48,0,0,0,47.73-19.77L480.23,373.32A67.48,67.48,0,0,0,500,325.59V174.41a67.48,67.48,0,0,0-19.77-47.73L373.32,19.77A67.48,67.48,0,0,0,325.59,0H174.41A67.48,67.48,0,0,0,126.68,19.77Z"/></clipPath></defs><title>Artboard 4</title><g id="Layer_1" data-name="Layer 1"><g class="cls-2"><polygon class="cls-3" points="304.86 117.56 195.14 117.56 117.56 195.14 117.56 304.86 195.14 382.44 304.86 382.44 382.44 304.86 382.44 195.14 304.86 117.56"/><polygon class="cls-4" points="117.56 195.14 0 146.45 146.45 0 195.14 117.56 117.56 195.14"/><polygon class="cls-5" points="117.56 304.86 0 353.55 146.45 500 195.14 382.44 117.56 304.86"/><polygon class="cls-6" points="382.44 304.86 382.44 195.14 500 146.45 500 353.55 382.44 304.86"/><polygon class="cls-7" points="117.56 304.86 117.56 195.14 0 146.45 0 353.55 117.56 304.86"/><polygon class="cls-8" points="195.14 382.44 304.86 382.44 353.55 500 146.45 500 195.14 382.44"/><polygon class="cls-9" points="304.86 117.56 353.55 0 146.45 0 195.14 117.56 304.86 117.56"/><polygon class="cls-10" points="382.44 304.86 500 353.55 353.55 500 304.86 382.44 382.44 304.86"/><polygon class="cls-11" points="382.44 195.14 304.86 117.56 353.55 0 500 146.45 382.44 195.14"/><polygon class="cls-12" points="146.45 333.75 349.91 162.61 382.44 195.14 382.44 220.4 186.47 373.77 146.45 333.75"/><polygon class="cls-12" points="215.9 382.44 382.44 242.89 382.44 265.14 245.89 382.44 215.9 382.44"/></g></g></svg>