<svg xmlns="http://www.w3.org/2000/svg" xmlns:xlink="http://www.w3.org/1999/xlink" viewBox="0 0 500 500"><defs><style>.cls-1{fill:url(#linear-gradient);}.cls-2{fill:url(#linear-gradient-2);}.cls-3{fill:url(#linear-gradient-3);}.cls-4{fill:url(#linear-gradient-4);}.cls-5{fill:url(#linear-gradient-5);}.cls-6{fill:url(#linear-gradient-6);}.cls-7{fill:url(#linear-gradient-7);}.cls-8{fill:url(#linear-gradient-8);}</style><linearGradient id="linear-gradient" x1="-7045.89" y1="353.48" x2="-6811.85" y2="89.61" gradientTransform="matrix(-1, 0, 0, 1, -6566.48, 0)" gradientUnits="userSpaceOnUse"><stop offset="0.36" stop-color="#3bb54a"/><stop offset="0.43" stop-color="#42b749"/><stop offset="0.53" stop-color="#57bb47"/><stop offset="0.66" stop-color="#79c242"/><stop offset="0.73" stop-color="#8dc640"/><stop offset="1" stop-color="#d9e026"/></linearGradient><linearGradient id="linear-gradient-2" x1="-6985.16" y1="407.35" x2="-6751.12" y2="143.48" xlink:href="#linear-gradient"/><linearGradient id="linear-gradient-3" x1="-7013.72" y1="382.02" x2="-6779.68" y2="118.15" xlink:href="#linear-gradient"/><linearGradient id="linear-gradient-4" x1="-6904.38" y1="479" x2="-6670.33" y2="215.13" xlink:href="#linear-gradient"/><linearGradient id="linear-gradient-5" x1="-6849.71" y1="527.49" x2="-6615.66" y2="263.62" xlink:href="#linear-gradient"/><linearGradient id="linear-gradient-6" x1="-6832.21" y1="543.01" x2="-6598.17" y2="279.14" xlink:href="#linear-gradient"/><linearGradient id="linear-gradient-7" x1="-7018.99" y1="377.34" x2="-6784.95" y2="113.47" xlink:href="#linear-gradient"/><linearGradient id="linear-gradient-8" x1="-6927.2" y1="458.76" x2="-6693.16" y2="194.89" xlink:href="#linear-gradient"/></defs><title>Artboard 1 copy 3</title><g id="Layer_1" data-name="Layer 1"><polygon class="cls-1" points="265.43 0 364.07 176.73 305.34 269.46 292.86 249.49 259.25 195.72 265.43 0"/><polygon class="cls-2" points="308.6 277.24 354.13 205.34 287.83 389.08 296.04 344.83 308.6 277.24 308.6 277.24"/><polygon class="cls-3" points="252.35 195.28 238.65 210.33 191.42 262.21 181.11 129.76 198.39 100.92 258.5 0.61 252.35 195.28"/><polygon class="cls-4" points="182.7 239.28 185.14 270.62 187.27 353.16 188.38 396.08 144.49 418.02 135.93 187.88 158.41 159.1 174.82 138.08 182.7 239.28"/><polygon class="cls-5" points="262.14 437.06 192.16 491.49 208.89 466.28 222.1 446.39 262.14 437.06"/><polygon class="cls-6" points="195.7 473.66 178.22 500 145.71 425.14 190.62 402.69 208.77 431.86 215.87 443.28 195.7 473.66"/><polygon class="cls-7" points="247.79 5.03 187.41 105.81 174.72 126.97 174.72 126.97 160.73 144.9 142.05 168.81 175.06 69.78 247.79 5.03"/><polygon class="cls-8" points="214.22 427.55 195.32 397.16 195.32 397.16 195.26 394.63 192.08 271.74 240 219.1 255.25 202.36 301.68 276.64 273.7 427.27 227.71 437.99 221.6 439.41 214.22 427.55"/></g></svg>