<svg xmlns="http://www.w3.org/2000/svg" xmlns:xlink="http://www.w3.org/1999/xlink" viewBox="0 0 500 500"><defs><style>.cls-1{fill:none;}.cls-2{clip-path:url(#clip-path);}.cls-3{fill:#e1e777;}.cls-4{fill:#52ae47;}.cls-5{fill:#189666;}.cls-6{fill:#8cc63f;}.cls-7{fill:#6bbf68;}.cls-8{fill:#c2da6b;}.cls-9{fill:#69c077;}.cls-10{fill:#f2f3c3;}</style><clipPath id="clip-path"><path class="cls-1" d="M219.94,12.14,121.2,104.07a44.13,44.13,0,0,0-14,32.29V364a44.15,44.15,0,0,0,14,32.29l98.74,91.92a44.11,44.11,0,0,0,60.12,0l98.74-91.92A44.15,44.15,0,0,0,392.85,364V136.36a44.13,44.13,0,0,0-14.05-32.29L280.06,12.14A44.11,44.11,0,0,0,219.94,12.14Z"/></clipPath></defs><title>Artboard 3</title><g id="Layer_1" data-name="Layer 1"><g class="cls-2"><polygon class="cls-3" points="325.4 320.36 325.4 179.96 250 109.75 174.6 179.96 174.6 320.36 250 390.56 325.4 320.36"/><polygon class="cls-4" points="250 -15.85 250 109.75 174.6 179.96 107.15 117.16 250 -15.85"/><polygon class="cls-5" points="174.6 320.36 107.15 383.16 250 516.16 250 390.56 174.6 320.36"/><polygon class="cls-6" points="325.4 320.36 392.85 383.16 392.85 117.16 325.4 179.96 325.4 320.36"/><polygon class="cls-7" points="174.6 320.36 174.6 179.96 107.15 117.16 107.15 383.16 174.6 320.36"/><polygon class="cls-8" points="250 109.75 250 -15.85 392.85 117.16 325.4 179.96 250 109.75"/><polygon class="cls-9" points="392.85 383.16 325.4 320.36 250 390.56 250 516.16 392.85 383.16"/><polygon class="cls-10" points="174.6 266.23 308.81 164.51 325.4 179.96 325.4 207.49 174.6 320.36 174.6 266.23"/><polygon class="cls-10" points="199.31 343.37 325.4 242.43 325.4 262.59 210.22 353.53 199.31 343.37"/></g></g></svg>