<svg xmlns="http://www.w3.org/2000/svg" xmlns:xlink="http://www.w3.org/1999/xlink" viewBox="0 0 500 500"><defs><style>.cls-1{fill:url(#linear-gradient);}.cls-2{fill:url(#linear-gradient-2);}.cls-3{fill:url(#linear-gradient-3);}.cls-4{fill:url(#linear-gradient-4);}.cls-5{fill:url(#linear-gradient-5);}.cls-6{fill:url(#linear-gradient-6);}.cls-7{fill:url(#linear-gradient-7);}</style><linearGradient id="linear-gradient" x1="241.84" y1="463.16" x2="375.97" y2="114.01" gradientUnits="userSpaceOnUse"><stop offset="0" stop-color="#b9529f"/><stop offset="0.01" stop-color="#b8519e"/><stop offset="0.16" stop-color="#9d3392"/><stop offset="0.24" stop-color="#93288d"/><stop offset="0.33" stop-color="#972c8f"/><stop offset="0.43" stop-color="#a33a95"/><stop offset="0.53" stop-color="#b74f9e"/><stop offset="0.55" stop-color="#b9529f"/><stop offset="0.72" stop-color="#cf6a71"/><stop offset="1" stop-color="#f79420"/></linearGradient><linearGradient id="linear-gradient-2" x1="85.11" y1="402.95" x2="219.24" y2="53.79" xlink:href="#linear-gradient"/><linearGradient id="linear-gradient-3" x1="160.01" y1="431.72" x2="294.15" y2="82.57" xlink:href="#linear-gradient"/><linearGradient id="linear-gradient-4" x1="283.16" y1="479.03" x2="417.29" y2="129.88" xlink:href="#linear-gradient"/><linearGradient id="linear-gradient-5" x1="135.21" y1="422.2" x2="269.35" y2="73.04" xlink:href="#linear-gradient"/><linearGradient id="linear-gradient-6" x1="256.95" y1="468.97" x2="391.09" y2="119.81" xlink:href="#linear-gradient"/><linearGradient id="linear-gradient-7" x1="178.13" y1="438.68" x2="312.26" y2="89.53" xlink:href="#linear-gradient"/></defs><title>Artboard 1 copy</title><g id="Layer_1" data-name="Layer 1"><polygon class="cls-1" points="289.98 135.09 289.98 245.65 289.98 253.64 289.98 409.28 320.44 426.77 331.32 433.01 343.19 232.9 312.61 176.7 289.98 135.09"/><polygon class="cls-2" points="208.54 44.75 211.29 12.62 162.59 148.22 157.23 235.5 172 212.26 197.64 171.91 208.54 44.75"/><polygon class="cls-3" points="334.21 203.72 301.68 99.35 233.34 15.45 289.62 121.75 334.21 203.72"/><polygon class="cls-4" points="271.35 436.27 264.5 445.19 267.94 450.44 300.51 500 330.09 439.29 323.47 435.5 287.74 414.98 271.35 436.27"/><polygon class="cls-5" points="277.1 234.6 283.92 240.45 283.92 123.94 223.88 10.52 218.43 0.24 215.22 37.74 203.74 171.62 277.1 234.6"/><polygon class="cls-6" points="249.78 446.6 226.84 443.45 288.01 492.01 261.82 452.15 259 447.87 249.78 446.6"/><polygon class="cls-7" points="266.56 432.57 283.92 410 283.92 248.44 273.88 239.82 201.27 177.48 189.48 196.04 156.81 247.46 218.58 436.2 247.62 440.19 259.45 441.81 266.56 432.57"/></g></svg>