<svg xmlns="http://www.w3.org/2000/svg" xmlns:xlink="http://www.w3.org/1999/xlink" viewBox="0 0 500 500"><defs><style>.cls-1{fill:none;}.cls-2{clip-path:url(#clip-path);}.cls-3{fill:#7a50a0;}.cls-4{fill:#623393;}.cls-5{fill:#53307f;}.cls-6{fill:#6e3895;}.cls-7{fill:#48286b;}.cls-8{fill:#602d8f;}.cls-9{fill:#edb9d5;}</style><clipPath id="clip-path"><path class="cls-1" d="M227.88,9.72l-202.07,220a30,30,0,0,0,0,40.64l202.07,220a30,30,0,0,0,44.24,0l202.07-220a30,30,0,0,0,0-40.64L272.12,9.72A30,30,0,0,0,227.88,9.72Z"/></clipPath></defs><title>Artboard 1</title><g id="Layer_1" data-name="Layer 1"><g class="cls-2"><polygon class="cls-3" points="250 -14.36 132.48 250 250 250 367.52 250 250 -14.36"/><polygon class="cls-4" points="492.86 250 367.52 250 250 -14.36 492.86 250"/><polygon class="cls-5" points="7.14 250 132.48 250 250 -14.36 7.14 250"/><polygon class="cls-6" points="250 514.36 367.52 250 250 250 132.48 250 250 514.36"/><polygon class="cls-7" points="7.14 250 132.48 250 250 514.36 7.14 250"/><polygon class="cls-8" points="492.86 250 367.52 250 250 514.36 492.86 250"/><polygon class="cls-9" points="177.94 147.72 295.21 87.33 316.27 134.72 143.87 224.38 177.94 147.72"/><path class="cls-9" d="M330.52,166.76C325.28,172,176.33,250,176.33,250h43.9l118.3-65.22Z"/></g></g></svg>