<svg xmlns="http://www.w3.org/2000/svg" xmlns:xlink="http://www.w3.org/1999/xlink" viewBox="0 0 500 500"><defs><style>.cls-1{fill:url(#linear-gradient);}.cls-2{fill:url(#linear-gradient-2);}.cls-3{fill:url(#linear-gradient-3);}.cls-4{fill:url(#linear-gradient-4);}</style><linearGradient id="linear-gradient" x1="151.5" y1="456.97" x2="406.64" y2="97.09" gradientUnits="userSpaceOnUse"><stop offset="0" stop-color="#7d0000"/><stop offset="0.29" stop-color="#b91b21"/><stop offset="0.62" stop-color="#d22536"/><stop offset="0.69" stop-color="#d63a33"/><stop offset="0.82" stop-color="#e1712d"/><stop offset="1" stop-color="#f1c623"/></linearGradient><linearGradient id="linear-gradient-2" x1="207.57" y1="496.72" x2="462.71" y2="136.84" xlink:href="#linear-gradient"/><linearGradient id="linear-gradient-3" x1="117.24" y1="432.67" x2="372.37" y2="72.79" xlink:href="#linear-gradient"/><linearGradient id="linear-gradient-4" x1="62.48" y1="393.85" x2="317.61" y2="33.97" xlink:href="#linear-gradient"/></defs><title>Artboard 1 copy 4</title><g id="Layer_1" data-name="Layer 1"><polygon class="cls-1" points="233.4 309.81 211.93 296.77 126.02 340.43 229.1 500 272.37 374.65 284.1 340.64 233.4 309.81"/><polygon class="cls-2" points="247.05 475.35 357.1 301.4 293.2 341.63 247.05 475.35"/><polygon class="cls-3" points="289.45 333.45 367.18 284.51 375.95 190.89 279.08 0 217.15 289.5 239.08 302.83 289.45 333.45"/><polygon class="cls-4" points="268.56 6.54 124.05 206.64 124.05 331.42 141.54 322.53 208.21 288.65 268.56 6.54"/></g></svg>