<svg xmlns="http://www.w3.org/2000/svg" xmlns:xlink="http://www.w3.org/1999/xlink" viewBox="0 0 500 500"><defs><style>.cls-1{fill:none;}.cls-2{clip-path:url(#clip-path);}.cls-3{fill:#ee3065;}.cls-4{fill:#ba1f4a;}.cls-5{fill:#8a1838;}.cls-6{fill:#fffae0;}</style><clipPath id="clip-path"><path class="cls-1" d="M11.29,147.82l76.39-88A46.11,46.11,0,0,1,122.49,44h255a46.11,46.11,0,0,1,34.81,15.87l76.39,88a46.09,46.09,0,0,1-.19,60.65L284.61,440.38a46.08,46.08,0,0,1-69.22,0L11.48,208.47A46.09,46.09,0,0,1,11.29,147.82Z"/></clipPath></defs><title>Artboard 2</title><g id="Layer_1" data-name="Layer 1"><g class="cls-2"><polygon class="cls-3" points="398.54 178.23 249.5 43.96 101.47 178.23 398.54 178.23"/><polygon class="cls-4" points="101.47 178.23 250 479.75 398.54 178.23 101.47 178.23"/><polygon class="cls-5" points="398.54 43.96 398.54 178.23 249.5 43.96 398.54 43.96"/><polygon class="cls-5" points="101.47 43.96 101.47 178.23 249.5 43.96 101.47 43.96"/><polygon class="cls-5" points="398.54 178.23 515.12 178.23 250 479.75 398.54 178.23"/><polygon class="cls-5" points="-15.12 178.23 101.47 178.23 250 479.75 -15.12 178.23"/><polygon class="cls-4" points="-15.12 178.23 101.47 43.96 101.47 178.23 -15.12 178.23"/><polygon class="cls-4" points="515.12 178.23 398.54 43.96 398.54 178.23 515.12 178.23"/><polygon class="cls-6" points="223.79 178.23 306.67 95.46 337.54 123.27 280.66 178.23 223.79 178.23"/><polygon class="cls-6" points="337.54 178.23 368.61 151.27 353.08 137.27 314.06 178.23 337.54 178.23"/></g></g></svg>